<svg xmlns="http://www.w3.org/2000/svg" viewBox="0 0 579.08 140.44"><defs><style>.cls-1{fill:#1d1465;}</style></defs><title>messayDesign_blue</title><g id="Layer_2" data-name="Layer 2"><g id="Layer_1-2" data-name="Layer 1"><path class="cls-1" d="M77.32,68c-.86,1.43-3.3,2.72-5.88,2.72a5.28,5.28,0,0,1-5-2.87c-1.15-2-1.44-6-1.44-11,0-8,.87-18.22.87-25.68,0-4.88-.43-10.47-2.16-10.47C60.11,20.66,44,65,42.75,69.43c-1.44,5.59-3.3,7.75-5.6,7.75h-.86C29.84,75.6,30.12,70.72,30,65.56c-.14-7.75-.14-33.43-1.43-39.88-.15-.86-.43-1.29-1-1.44-1.29,0-3,4.88-5.88,11.19-3.3,7.32-8.89,22.24-8.89,32.28a23.72,23.72,0,0,0,.14,3.15,4.71,4.71,0,0,1,.15,1.44c0,1.15-.44,2.29-2.16,3.44a8.29,8.29,0,0,1-4.59,1.15c-2.15,0-4.44-.57-5.45-2.3-.57-.86-.86-3-.86-5.73,0-9,2.44-25.25,2.44-35.72a44.26,44.26,0,0,0-.14-4.45A27.07,27.07,0,0,1,2,25a8,8,0,0,1,.72-3.87,6.29,6.29,0,0,1,5.3-3,7.09,7.09,0,0,1,7,5.89c3.45-6.17,9.76-15.78,13.49-15.78,3.3,0,7,3.3,8.46,5.88s2.58,10.9,3.44,27.4C46.19,30,56.66,9.61,64.55,8.32h.72c4.59,0,9.61,6.46,10.47,9.61C76.75,21.66,77,32,77,41.31c0,5.74-.28,11.62-.28,17.65,0,2,1.29,4.16,1.29,6.45A4.5,4.5,0,0,1,77.32,68Z"/><path class="cls-1" d="M148.61,52.36a66.1,66.1,0,0,0-6.31,4.88C134.12,63.41,119.49,74,107.58,74a15.9,15.9,0,0,1-6.74-1.43c-9.47-4.31-16.21-15.5-16.21-26.25a29,29,0,0,1,.57-5c3.73-17.21,23.24-28,39.6-28,5.16,0,10,1,13.91,3.3A2.58,2.58,0,0,1,140,18.93c0,5.17-10.9,16.07-19.94,19.8-10.9,4.59-17.93,4.88-23.38,5.74v1.87c0,6.88,4.88,16.63,12.77,16.63,9.61,0,29.26-15.77,31-17.78,1.44-2.58,3.3-5.88,6.31-5.88a5.67,5.67,0,0,1,3.16,1.14,6,6,0,0,1,2.87,5C152.77,48.2,150.76,50.93,148.61,52.36ZM123.51,24a28.69,28.69,0,0,0-11.91,3,38.14,38.14,0,0,0-10.19,7s8.61-1.44,13.06-3.45c7-3.15,10-6.59,10-6.59Z"/><path class="cls-1" d="M172.85,85.07h-.58c-3.3,0-6.74-2.3-6.74-5.45a5.74,5.74,0,0,1,1.29-3.45c1.72-2.58,20.09-8.17,19.94-11.47-.71-4.31-30.12-4.74-32.13-23.82a14.9,14.9,0,0,1-.15-2.58c0-15.06,14.21-27.11,25.54-36a10.59,10.59,0,0,1,7-2.3c5.74,0,11.48,3.44,11.91,6.6v.72c0,2.43-1.58,4.59-5.17,4.59a11.25,11.25,0,0,1-5-1.15c-4.3.14-11.48,8.61-14.78,11.47-6,5.17-8,12.34-8,16.07a3.24,3.24,0,0,0,.14,1.15c2.3,13.91,31.13,7.89,33.43,26C199.53,72.73,178.87,84.35,172.85,85.07Z"/><path class="cls-1" d="M222.77,85.07h-.58c-3.3,0-6.74-2.3-6.74-5.45a5.74,5.74,0,0,1,1.29-3.45c1.72-2.58,20.08-8.17,19.94-11.47C236,60.39,206.55,60,204.55,40.88a14.9,14.9,0,0,1-.15-2.58c0-15.06,14.2-27.11,25.54-36A10.59,10.59,0,0,1,237,0c5.73,0,11.47,3.44,11.9,6.6v.72c0,2.43-1.58,4.59-5.16,4.59a11.18,11.18,0,0,1-5-1.15c-4.31.14-11.48,8.61-14.78,11.47-6,5.17-8,12.34-8,16.07a3.24,3.24,0,0,0,.14,1.15c2.3,13.91,31.13,7.89,33.43,26C249.45,72.73,228.79,84.35,222.77,85.07Z"/><path class="cls-1" d="M292.33,72.3a3.62,3.62,0,0,1-2.87,1.29,6,6,0,0,1-5.31-3.44c-3.44,2-10.32,5.45-16.63,5.45a11.38,11.38,0,0,1-8.76-3.44A12.94,12.94,0,0,1,255.32,63c0-10.75,10.33-23.38,20.09-23.38,4.15,0,8.31,2.44,11.47,8.47a41.26,41.26,0,0,0,.57-6.46,32,32,0,0,0-3.73-14.78,8,8,0,0,0-7.45-4.73c-3.88,0-7.61,2.44-7.75,3.3-.14,1.58-1.58,2.44-3.3,2.44-2.58,0-5.59-1.72-5.74-4.88,0-.14-.14-.29-.14-.43,0-6.45,9.75-11,18.22-11a16.75,16.75,0,0,1,8.17,1.86c10,6,13.06,17.07,13.06,28C298.79,55.66,293.62,69.86,292.33,72.3ZM275.26,50.78c-5.16.86-7.46,4.45-8.75,7.89a13.55,13.55,0,0,0-.86,4c0,2,1,2.72,2.58,2.72,3.73,0,10.33-4.3,12.77-6.16C280,56.52,277.41,50.78,275.26,50.78Z"/><path class="cls-1" d="M356.45,36.58c-1,7.75-3.58,39.45-6.31,62.55-.14,1.29-4,27.68-4,28.4.15.43,2.16,3.3,2.16,6.45,0,4.31-3.59,6.46-7.18,6.46-3.87,0-7.17-2.58-7.17-6.74,0-1.58,1.15-5.45,2.73-6.6.57-.58.86-15.78,3.58-42.46,1.72-17.08,2.73-26.83,3.3-43.76-7.75,8.9-22,26.68-28.83,26.68-4.74,0-6.17-4.44-6.17-11.47,0-8.18,2-19.51,3.44-31.13.58-3.87.72-13,5.74-14.49a3.24,3.24,0,0,1,1.15-.14c3,0,6.88,2.87,7.17,6.31,0,5-6.17,27.4-6.17,33.14,0,.72,0,1.15.29,1.29,1.72,0,16.06-19.22,22.09-26,2-2.15,2.87-7.31,7.17-7.31a7.85,7.85,0,0,1,2.44.43c2.87,1.15,4.74,8.17,4.74,14.63A29.88,29.88,0,0,1,356.45,36.58Z"/><path class="cls-1" d="M375.24,78.47c-4.88,0-7.32-3.73-7.32-8,0-5.3,4.74-8,7-8.32h1c4.73,0,7,4.45,7,8.18C383,74.88,381,78.47,375.24,78.47Z"/><path class="cls-1" d="M436.8,48.42a15.37,15.37,0,0,1-.65,4.56,23.38,23.38,0,0,1-1.68,4q-1,1.92-2.19,3.78c-.78,1.25-1.52,2.56-2.21,4a.47.47,0,0,0-.37.13,1,1,0,0,0-.18.33,1.2,1.2,0,0,1-.17.34.41.41,0,0,1-.37.16,8.85,8.85,0,0,1-1,1.8c-.4.56-.83,1.11-1.28,1.65s-.88,1.08-1.3,1.63a11.1,11.1,0,0,0-1.11,1.78h-.43a36.83,36.83,0,0,1-5.28,6.08,41.88,41.88,0,0,1-6.4,4.82,1.12,1.12,0,0,1-.27.43.47.47,0,0,0-.08.48,2.49,2.49,0,0,0-.8.67c-.22.28-.43.56-.63.85l-.63.85a2.06,2.06,0,0,1-.85.62l-1.24-.21c-.39-.06-.79-.1-1.19-.13a4.43,4.43,0,0,0-.52,0,1.85,1.85,0,0,1-.48,0,1.61,1.61,0,0,1-.8-.37,1.39,1.39,0,0,0-.94-.28,2.09,2.09,0,0,0-.48,0,13.6,13.6,0,0,0-.8-1.24,2.3,2.3,0,0,1-.46-1.37,3.49,3.49,0,0,1,.16-1,3.32,3.32,0,0,0,.15-1,6,6,0,0,0-.37-2,5.71,5.71,0,0,1-.37-2,2.52,2.52,0,0,1,.09-.67,2.51,2.51,0,0,0,.08-.67.89.89,0,0,0-.34-.7,1.29,1.29,0,0,1,.17-.43.91.91,0,0,0,.13-.48,2.11,2.11,0,0,0,0-.76c0-.28,0-.53,0-.76,0-.61,0-1.22.09-1.82a7.84,7.84,0,0,1,.39-1.79,2.15,2.15,0,0,0-.13-.47l-.18-.44a8.2,8.2,0,0,0,.4-2c.05-.75.08-1.5.08-2.26v-2.3a16,16,0,0,1,.13-2.13c.06-.28.12-.57.2-.84a3.29,3.29,0,0,0,.11-.81,1.52,1.52,0,0,0-.13-.62,3,3,0,0,0-.35-.55.45.45,0,0,0,.35-.37,4.77,4.77,0,0,0,0-.5,4.61,4.61,0,0,0-.22-1.34,8.35,8.35,0,0,0,.22-1.5c0-.51,0-1,0-1.5a41.16,41.16,0,0,0-.32-5.12c-.22-1.68-.36-3.37-.42-5.08h-.13a.73.73,0,0,0-.47.13,3.07,3.07,0,0,0-.35.28,2,2,0,0,1-.39.26,1,1,0,0,1-.52.07,5.68,5.68,0,0,1-1.2,1,12.06,12.06,0,0,1-1.41.78c-.49.23-1,.44-1.52.63l-1.47.54a2.43,2.43,0,0,1-1.05-.71c-.29-.34-.56-.68-.82-1a1.45,1.45,0,0,1,0-.35V43a2.68,2.68,0,0,1,.56-1.85c.38-.41.78-.91,1.22-1.49h.21a.81.81,0,0,1,.37.08.72.72,0,0,0,.37.09h.13a11.78,11.78,0,0,1,2.67-1.67,15.76,15.76,0,0,1,2.93-1,5.58,5.58,0,0,1,1.33-1,3.41,3.41,0,0,1,1.58-.34,4.53,4.53,0,0,1,.5,0,3.26,3.26,0,0,1,.5.06c1.19-.55,2.31-1,3.37-1.41a10.55,10.55,0,0,1,3.67-.58.43.43,0,0,0,.36-.14,1.42,1.42,0,0,0,.2-.28l.17-.28a.34.34,0,0,1,.31-.13,1.09,1.09,0,0,0,0,.26.2.2,0,0,0,.22.17.55.55,0,0,0,.32-.1.6.6,0,0,1,.37-.11c.15,0,.25.1.31.3l.91-.56a3.17,3.17,0,0,1,.95-.39c.44.08.88.15,1.33.21a10.28,10.28,0,0,0,1.37.09,7.37,7.37,0,0,0,1-.07,1.62,1.62,0,0,0,.91-.41c.12,0,.17,0,.17.18a1.94,1.94,0,0,0,.83.45,4.44,4.44,0,0,0,.91.13l1,.07a1.89,1.89,0,0,1,.86.3,1.33,1.33,0,0,1,.57.28,1.76,1.76,0,0,0,.56.33,3.47,3.47,0,0,0,.72.13,1.79,1.79,0,0,1,.67.17.33.33,0,0,1,.24.29.44.44,0,0,0,.24.32,2,2,0,0,0,1,.37,2.23,2.23,0,0,1,1.13.41,1.54,1.54,0,0,0,1,1.26l1.52.61a.61.61,0,0,1,.17.61,5.51,5.51,0,0,1,.93.87,9.19,9.19,0,0,1,.79,1l.71,1.06a5,5,0,0,0,.83,1,.8.8,0,0,0,.11.6.85.85,0,0,1,.06.65,5,5,0,0,1,1,1.26,1.48,1.48,0,0,0-.26.87,2.91,2.91,0,0,0,.13.87,3.27,3.27,0,0,1,.13.87Zm-4-1a6.52,6.52,0,0,0-.48-2.45c-.32-.8-.59-1.59-.83-2.37a.66.66,0,0,1-.71-.41,1.67,1.67,0,0,0-.54-.72,1.39,1.39,0,0,1-1.05-1.26c-.58-.23-1.17-.49-1.78-.78a4.27,4.27,0,0,1-1.52-1.21l-3.14-1a10.85,10.85,0,0,0-3.24-.5l-.54,0a3.62,3.62,0,0,1-.46,0,2.57,2.57,0,0,0-.74.13,2.21,2.21,0,0,1-.73.13,1.38,1.38,0,0,1-.79-.26,7.83,7.83,0,0,1-1.89.74c-.68.18-1.36.33-2.06.46s-1.37.29-2,.48a5.62,5.62,0,0,0-1.78.84c-.17-.05-.34-.1-.5-.13a2.42,2.42,0,0,0-.45,0,1,1,0,0,0-.61.17.3.3,0,0,0-.15.22c0,.09,0,.18-.05.28a.38.38,0,0,1-.11.24c-.05.06-.17.07-.34,0a2.41,2.41,0,0,1,0,.4c0,.11,0,.24,0,.39a10.5,10.5,0,0,0,.24,2.23,10.59,10.59,0,0,1,.24,2.24,7.26,7.26,0,0,1,0,.8,3.57,3.57,0,0,1-.18.8,3,3,0,0,1,.24,1.13c0,.41,0,.81,0,1.22s0,.8.05,1.19a3.05,3.05,0,0,0,.3,1.11,9.86,9.86,0,0,0-.17,1.3c0,.44-.05.87-.05,1.31a26.84,26.84,0,0,0,.16,3,29.83,29.83,0,0,1,.15,3c0,.26,0,.54,0,.82s0,.58-.07.87a5,5,0,0,1-.3,1.09,2.81,2.81,0,0,0-.22,1.13,7.26,7.26,0,0,0,0,.8,7.92,7.92,0,0,1,.05.85c0,.11,0,.22,0,.32a1.69,1.69,0,0,0,0,.33c-.14,1-.26,2-.34,3.08s-.13,2.07-.13,3.08,0,1.91.08,2.85.15,1.89.26,2.84a1.48,1.48,0,0,0-.17.7,2.89,2.89,0,0,0,.3,1.24,1.61,1.61,0,0,0,.92.84,11.4,11.4,0,0,0,2.58-1.37L412.48,78c.2-.15.51-.34.91-.59a7.58,7.58,0,0,0,.83-.54,3.23,3.23,0,0,0,.37-.37,4.23,4.23,0,0,1,.36-.41l1.91-2c1.1-1.13,2.2-2.27,3.28-3.43a34.46,34.46,0,0,0,3-3.69q.39-.61.78-1.2a13.53,13.53,0,0,0,.74-1.24,1.4,1.4,0,0,0,.26-.5,1.17,1.17,0,0,1,.31-.49,1.72,1.72,0,0,1,.32-.35,2.65,2.65,0,0,0,.33-.35c.23-.26.45-.53.67-.8s.44-.57.67-.89c.64-.93,1.23-1.86,1.78-2.8s1.16-1.88,1.83-2.8a6.93,6.93,0,0,1,.34-1.63c.18-.51.35-1,.53-1.48a13.75,13.75,0,0,0,.43-1.5,5.72,5.72,0,0,0,.09-1.73,2,2,0,0,1,.37-.44.67.67,0,0,0,.15-.52Z"/><path class="cls-1" d="M467.88,51.11v.17a.41.41,0,0,0-.31.44,4.86,4.86,0,0,1-1,.32,5.86,5.86,0,0,0-1,.33l-1-.07-1,0c-.87,0-1.74,0-2.6.09a19,19,0,0,1-2.61,0,5.9,5.9,0,0,1-1.32.54,5.28,5.28,0,0,1-1.37.2,3.07,3.07,0,0,1-.91-.13,14.59,14.59,0,0,1-2.28.87l-2.5.67c-.84.22-1.64.46-2.41.74a6.37,6.37,0,0,0-2,1.15c-.06.4-.1.8-.13,1.19s0,.78,0,1.15a9.89,9.89,0,0,0,.06,1.13,3.92,3.92,0,0,0,.28,1,1.83,1.83,0,0,0,.5.13,3.37,3.37,0,0,0,.5.05,1.35,1.35,0,0,0,.44-.07.44.44,0,0,0,.3-.28,7.08,7.08,0,0,1,1.3-.06l1.31,0c.43,0,.86,0,1.28-.05a6.33,6.33,0,0,0,1.23-.21,7.5,7.5,0,0,1,1.37-.22l1.33-.09c.43,0,.88-.08,1.34-.15a5,5,0,0,0,1.44-.46,3.05,3.05,0,0,0,1.15.22,7.33,7.33,0,0,1,1.15.09,2.08,2.08,0,0,1,.5.48,1,1,0,0,1,.19.6,2.08,2.08,0,0,1-.43,1.22,9.49,9.49,0,0,0-.7,1.13h-.47a7.14,7.14,0,0,0-2,.28c-.66.19-1.31.41-2,.65s-1.3.47-1.95.65a7.2,7.2,0,0,1-2,.29c-.12,0-.18.06-.2.19a.4.4,0,0,1-.11.28,3.51,3.51,0,0,0-.65,0,8,8,0,0,0-1.91.22,8.29,8.29,0,0,1-1.86.21,4.7,4.7,0,0,1-.53,0l-.52-.06a1,1,0,0,1-.56.45,2,2,0,0,0-.65.37,3.22,3.22,0,0,0-.15,1c0,.37,0,.76-.05,1.15a7.73,7.73,0,0,1-.11,1.11,1.62,1.62,0,0,1-.34.82c0,.15.14.2.34.15s.31,0,.31.28a4,4,0,0,1-.09.83,4.28,4.28,0,0,0-.09.87,9.25,9.25,0,0,0,.2,1.8,6.94,6.94,0,0,0,.61,1.8,3.9,3.9,0,0,0,1.1,1.37,2.78,2.78,0,0,0,1.74.54,3.15,3.15,0,0,0,1.3-.26,2.15,2.15,0,0,0,1-.87l.22,0a1.75,1.75,0,0,1,.33,0,1.13,1.13,0,0,0,.32,0,1.17,1.17,0,0,0,.67-.33c.28-.22.58-.47.92-.76s.67-.57,1-.84a3.53,3.53,0,0,1,1-.59c.2-.41.39-.81.58-1.22a2.17,2.17,0,0,1,.85-.95V71.39a7.61,7.61,0,0,1,.93-.87,2.45,2.45,0,0,0,.76-1,2.73,2.73,0,0,0,.41.13,1.93,1.93,0,0,0,.42,0,2.48,2.48,0,0,0,.45,0,2.42,2.42,0,0,0,.46-.13,3.84,3.84,0,0,1,.54,1.07,5.78,5.78,0,0,0,.5,1.1c-.26.52-.56,1.15-.91,1.87s-.72,1.45-1.13,2.17-.83,1.41-1.28,2.06a7.24,7.24,0,0,1-1.32,1.5,1.94,1.94,0,0,1-.57.31c-.32.23-.61.45-.87.67a6,6,0,0,0-.74.76,12.53,12.53,0,0,0-2.41,1q-1.14.65-2.28,1.26a4.44,4.44,0,0,0-1.13-.13,9.2,9.2,0,0,0-1,.06,7.87,7.87,0,0,1-1.13.07.76.76,0,0,0-.5-.28c-.21,0-.29-.2-.23-.46a4.16,4.16,0,0,1-2.39-.8A6.37,6.37,0,0,1,441.24,80a10.76,10.76,0,0,1-1-2.26c-.27-.81-.54-1.59-.83-2.34V75.3a.23.23,0,0,1,.17-.26.24.24,0,0,0,.18-.26.16.16,0,0,0-.05-.13l-.21-.83a3.32,3.32,0,0,1-.09-.82,10.28,10.28,0,0,1,.09-1.37,10.39,10.39,0,0,0,.08-1.37,3.79,3.79,0,0,0-.17-1.22,1.57,1.57,0,0,0,.28-.58,3.3,3.3,0,0,0,.15-.76c0-.26.05-.52.07-.78a2.85,2.85,0,0,1,.11-.7l-.31-.85a2.84,2.84,0,0,1-.13-.89v-.3a10.15,10.15,0,0,0,.74-1.52c.2-.52.42-1.06.65-1.61v-.13c0-.84,0-1.67-.08-2.51s-.09-1.68-.09-2.52v-.83a7.15,7.15,0,0,1,0-.82,1.16,1.16,0,0,0,.52-.48,1.24,1.24,0,0,1,.53-.48h1.43l.26-.43a1.38,1.38,0,0,0,.17-.48,5,5,0,0,0,.94-.37c.3-.16.58-.33.84-.5l1.11-.63a7.59,7.59,0,0,1,1-.48,6.89,6.89,0,0,1,1.06-.32,11.85,11.85,0,0,1,1.31-.22c.23,0,.38,0,.45-.13a1.68,1.68,0,0,1,.33-.3c.34.06.69.11,1,.15a9.07,9.07,0,0,0,1,.06,4.93,4.93,0,0,0,2-.39c.86,0,1.72,0,2.58,0s1.71,0,2.58,0,1.51,0,2.26.08a18.24,18.24,0,0,1,2.22.31,2.59,2.59,0,0,1,.86-.13,4.92,4.92,0,0,1,1.07.11,2.91,2.91,0,0,0,1.06,0,1.88,1.88,0,0,0,.24.8A1.46,1.46,0,0,1,467.88,51.11Z"/><path class="cls-1" d="M492,73.26a2.19,2.19,0,0,1-.37,1.28,1.86,1.86,0,0,0-.28,1.32,3,3,0,0,0-1,.91c-.26.38-.51.77-.74,1.18a28.45,28.45,0,0,1-6.14,3,20.22,20.22,0,0,1-6.76,1.15.52.52,0,0,1-.39-.19l-.34-.41a5,5,0,0,0-.37-.42.63.63,0,0,0-.46-.19.78.78,0,0,0-.48.13.61.61,0,0,1,0-.15.41.41,0,0,0,0-.16,5,5,0,0,0-.13-1.06,4.39,4.39,0,0,1-.13-1.06,2.09,2.09,0,0,1,.21-1h.52a4.72,4.72,0,0,0,.85-.07,6.13,6.13,0,0,1,.89-.06,1.48,1.48,0,0,1,.87.26,14.65,14.65,0,0,0,4.54-.89c1.43-.54,2.88-1.07,4.36-1.59a2.13,2.13,0,0,0,.41-1.06,3.56,3.56,0,0,1,.33-1.11,10.91,10.91,0,0,0-2.28-1.5,4.94,4.94,0,0,0-2.67-.37,4.43,4.43,0,0,0-1.93-.65c-.68,0-1.37-.14-2.07-.26-.17,0-.35-.06-.54-.11a2.81,2.81,0,0,0-.59-.06.87.87,0,0,0-.41.11.23.23,0,0,0-.11.32.83.83,0,0,0-.58-.41,1.12,1.12,0,0,1-.63-.32,8.1,8.1,0,0,1-2.43-.5l-2.31-.94a4.53,4.53,0,0,0-.67-.19,2.55,2.55,0,0,1-.63-.24,3.49,3.49,0,0,1-1.26-1,5.94,5.94,0,0,1-.76-1.46,9.94,9.94,0,0,1-.41-1.67c-.09-.58-.17-1.11-.26-1.61.26-.46.5-.94.72-1.43a10.6,10.6,0,0,0,.54-1.56,3.85,3.85,0,0,1,.52-.22c.17-.06.36-.13.56-.22a.65.65,0,0,1,0-.21.78.78,0,0,1,.15-.44.43.43,0,0,0,.07-.43c.64-.58,1.25-1.18,1.84-1.81a10.49,10.49,0,0,0,1.55-2.06,2.34,2.34,0,0,0,1-.65l.78-.89a5.63,5.63,0,0,1,.87-.82,2.39,2.39,0,0,1,1.21-.46,1.53,1.53,0,0,1,.48-.5l.61-.37a3.12,3.12,0,0,0,.56-.39,1.2,1.2,0,0,0,.39-.61,3.07,3.07,0,0,0,1.29-.26c.39-.17.77-.36,1.15-.56s.76-.39,1.15-.57a3.15,3.15,0,0,1,1.28-.26l.35,0,.39.07a1.53,1.53,0,0,1,.41.72,5.69,5.69,0,0,1,.15.89c0,.32.05.63.07,1a2.93,2.93,0,0,0,.15.87c-.26.49-.54,1-.85,1.48a3.15,3.15,0,0,1-1.19,1.13H483a.85.85,0,0,1-.56-.13,1.07,1.07,0,0,0-.61-.18.46.46,0,0,0-.35.13l-.22.22a1,1,0,0,1-.24.17.48.48,0,0,1-.41,0c-.4.15-.56.39-.48.74a2.89,2.89,0,0,0-1.39.5,9,9,0,0,0-1,.91,11.41,11.41,0,0,1-1,.91,1.87,1.87,0,0,1-1.13.46,9.7,9.7,0,0,1-1.8,2.3,9.12,9.12,0,0,0-1.76,2.26,3.48,3.48,0,0,1,.17.74c0,.26.07.53.13.82a4.07,4.07,0,0,0,.94.91l1.06.79h.13a3.92,3.92,0,0,1,1.61.32,3.77,3.77,0,0,0,1.56.33,1.45,1.45,0,0,0,.74-.18c.75.18,1.49.32,2.23.44s1.49.2,2.24.26a7.33,7.33,0,0,0,1.15.09,4.44,4.44,0,0,1,1.11.13,7.08,7.08,0,0,1,1,.32l1,.41a18.58,18.58,0,0,1,1.89,1,7.4,7.4,0,0,1,1.58,1.24,5.16,5.16,0,0,1,1.09,1.65A5.53,5.53,0,0,1,492,73.26Z"/><path class="cls-1" d="M507.19,72.78a2.81,2.81,0,0,1-.52.63,7.6,7.6,0,0,0-.56.58,1.63,1.63,0,0,1-.67.13c-.25,0-.48,0-.7,0h-.61a.7.7,0,0,0-.45.2.88.88,0,0,1-.52-.33.82.82,0,0,0-.61-.28.69.69,0,0,0-.35,0A14,14,0,0,1,501,72.13l-1-1.57c0-1.07-.12-2.15-.26-3.25,0-.26-.08-.52-.13-.78a5.79,5.79,0,0,1-.13-.74,6,6,0,0,1,.06-.85c0-.27.08-.53.11-.76.12-.84.25-1.66.39-2.47s.28-1.64.39-2.48a15,15,0,0,0,.18-2.37,6.81,6.81,0,0,0-.4-2.32l0-.22a3,3,0,0,1,.2-.58,2.1,2.1,0,0,0,.15-.55.64.64,0,0,0-.22-.69.74.74,0,0,1,.44-.46.53.53,0,0,0,.34-.5.65.65,0,0,0,0-.34q.35-.14.72-.24a1.36,1.36,0,0,1,.72,0,2.37,2.37,0,0,1,1,.37,5.5,5.5,0,0,1,.83.63,11.67,11.67,0,0,1,.56,4.4c-.08,1.55-.23,3.11-.43,4.67s-.33,3.09-.39,4.58a9.84,9.84,0,0,0,.69,4.15l.09,0a.32.32,0,0,0,.35-.15.31.31,0,0,1,.35-.15.55.55,0,0,0,.21.08,6.71,6.71,0,0,0,.57,1.65C506.59,71.74,506.88,72.26,507.19,72.78Z"/><path class="cls-1" d="M559.81,54.71a.83.83,0,0,1-.5.55,4.5,4.5,0,0,1-.76.24,2.2,2.2,0,0,0-.71.28.86.86,0,0,0-.41.63l-.09,0c-.12,0-.2,0-.24-.11a2.12,2.12,0,0,1-.11-.21.91.91,0,0,0-.11-.22.21.21,0,0,0-.19-.11,4.91,4.91,0,0,0-.94.09,5.45,5.45,0,0,1-.89.08,3.6,3.6,0,0,1-1.17-.17.42.42,0,0,0-.33.39.39.39,0,0,1-.28.39,1.19,1.19,0,0,1-.52.07,1.61,1.61,0,0,0-.61.06l-1.39.35a5.43,5.43,0,0,1-1.38.17,2.6,2.6,0,0,1-.57,0,4.16,4.16,0,0,1-1.48.76c-.55.16-1.12.3-1.71.43a14.47,14.47,0,0,0-1.74.5,4.14,4.14,0,0,0-1.5,1,2.43,2.43,0,0,0-.6-.09,2,2,0,0,0-1,.24c-.29.16-.6.31-.91.46a1.36,1.36,0,0,1-.44.08,1.54,1.54,0,0,0-.48.09.46.46,0,0,0-.32.28.87.87,0,0,1-.28.37,16.3,16.3,0,0,0,.3,3.11,16.12,16.12,0,0,1,.3,3.1v.17a3.3,3.3,0,0,0,.48,1.37,2.42,2.42,0,0,1,.39,1.28,1.45,1.45,0,0,1-.09.48,2,2,0,0,1,1.5,1.15,11.86,11.86,0,0,1,.61,1.91,9.77,9.77,0,0,0,.65,1.89,2.08,2.08,0,0,0,1.63,1.09,8.28,8.28,0,0,1,.13.89c0,.3,0,.6,0,.89a5.29,5.29,0,0,1-.13,1.19,2.4,2.4,0,0,1-.52,1.06c-.43,0-.75.05-1,.05a2.41,2.41,0,0,0-.91.26A8.1,8.1,0,0,1,540,80a14.38,14.38,0,0,1-1.25-1.43c-.4-.5-.78-1-1.16-1.56a16.39,16.39,0,0,0-1.21-1.54,29.62,29.62,0,0,1-4.63.76c-1.57.13-3.14.19-4.71.19a.34.34,0,0,1-.26.09l-.32,0a.61.61,0,0,0-.26.09c-.08,0-.1.12-.07.24a1.92,1.92,0,0,0-.67-.24,3.39,3.39,0,0,0-.67-.07l-.44,0a1.08,1.08,0,0,0-.43.16,22.46,22.46,0,0,1-3.2-.85,25.62,25.62,0,0,0-3.14-.89.62.62,0,0,0-.18-.5,1.31,1.31,0,0,1-.3-.46,11.19,11.19,0,0,1-3.06-2.73,5.29,5.29,0,0,1-1-3.91l-.31-.61a1.41,1.41,0,0,1,.31-1,2,2,0,0,0-.61-.6,11.07,11.07,0,0,0,.69-1.26,5.5,5.5,0,0,0,.44-1.39,2,2,0,0,0,0-.39,1,1,0,0,1,.09-.39,6.13,6.13,0,0,1,.24-.59l.28-.59a28.71,28.71,0,0,1,1.54-2.84,9,9,0,0,1,2.15-2.37,2.77,2.77,0,0,1,.43-1.24,7.55,7.55,0,0,1,.77-.91l.82-.84a3.06,3.06,0,0,0,.63-1c.58-.49,1.16-1,1.76-1.43a6.57,6.57,0,0,0,1.5-1.65,7.53,7.53,0,0,0,1.47-.67,3.75,3.75,0,0,0,1.17-1.07,9.22,9.22,0,0,0,2.07-.39,7.55,7.55,0,0,1,2.15-.3,4.27,4.27,0,0,1,1.15.19,1.84,1.84,0,0,1,1,.68.46.46,0,0,1,0,.21l.05.22a.4.4,0,0,0,.1.15c.05.05.13.05.24,0a9.19,9.19,0,0,1-.21,1.93,2.28,2.28,0,0,1-1.13,1.5,4,4,0,0,0-1.22-.18,3.69,3.69,0,0,0-1.58.33,10.27,10.27,0,0,0-1.39.74l-1.37.82a5.09,5.09,0,0,1-1.48.59q-.09.35-.15.63a1.36,1.36,0,0,0,0,.63.66.66,0,0,1-.32-.07.75.75,0,0,0-.33-.06.41.41,0,0,0-.41.34,5.91,5.91,0,0,1-.2.57,3.7,3.7,0,0,0-1.37,1,11,11,0,0,0-1,1.34c-.31.48-.63.93-1,1.37a3.47,3.47,0,0,1-1.3,1c-.24.92-.46,1.84-.68,2.73s-.47,1.8-.76,2.7a4.26,4.26,0,0,1,.13,1.08,5.48,5.48,0,0,1-.13,1.26,7,7,0,0,1,.44.83l.52,1a8.63,8.63,0,0,0,.54,1,2.94,2.94,0,0,0,.54.65,4.89,4.89,0,0,0,1.48.63,4.82,4.82,0,0,1,1.78.93.94.94,0,0,0,.22,0l.21,0a2.92,2.92,0,0,1,1.13.26,3,3,0,0,0,.79.26,48.68,48.68,0,0,0,5.29-.32q2.86-.33,5.3-.81a3.69,3.69,0,0,0,.09-.74,3.47,3.47,0,0,0-.18-1.1A2.25,2.25,0,0,0,535,69c0-.43,0-.86,0-1.3s0-.87,0-1.3c0-.72,0-1.49-.08-2.3a9.34,9.34,0,0,0-.44-2.26h-.09a1.91,1.91,0,0,0-1,.28,1.71,1.71,0,0,1-.93.28.67.67,0,0,1-.43-.13,3.37,3.37,0,0,1-1.26.92,16,16,0,0,1-1.57.54c-.55.16-1.09.32-1.62.5a5,5,0,0,0-1.46.74,1.79,1.79,0,0,0-.65-.13,3.81,3.81,0,0,0-.59,0l-.63.09a2.52,2.52,0,0,1-.91-2,3.76,3.76,0,0,1,.2-1.19,4.75,4.75,0,0,1,.54-1.11,1.06,1.06,0,0,1,.52-.15c.2,0,.41-.05.61-.09a1.54,1.54,0,0,0,.5-.19.65.65,0,0,0,.24-.48.38.38,0,0,0,.21.13.41.41,0,0,0,.18,0,.53.53,0,0,1,.17,0,.18.18,0,0,1,.15.09.25.25,0,0,1,.07.17,28.11,28.11,0,0,1,3.82-1.69c1.3-.46,2.63-.88,4-1.26s2.7-.73,4.06-1.06,2.71-.71,4-1.11a1.91,1.91,0,0,1,.65-.39,1.77,1.77,0,0,0,.61-.39,1.53,1.53,0,0,0,.74.17,4.16,4.16,0,0,0,1.32-.24,4.47,4.47,0,0,0,1.2-.58,1.77,1.77,0,0,0,.3,0h.31a5,5,0,0,0,1.62-.26,8.46,8.46,0,0,0,1.5-.7h.22a12,12,0,0,0,2.67-.3,12.23,12.23,0,0,1,2.71-.3,5.43,5.43,0,0,1,3.13.91v.52c0,.23,0,.44,0,.63A2.16,2.16,0,0,0,559.81,54.71Z"/><path class="cls-1" d="M579.08,50.2a4.37,4.37,0,0,1-.24.89,1.89,1.89,0,0,0-.06,1,1,1,0,0,0-.68.28,2.32,2.32,0,0,0-.39.54q-.15.3-.3.63a2.55,2.55,0,0,1-.37.59,16.86,16.86,0,0,1,.39,3.17c0,1.07.1,2.12.22,3.17a32.25,32.25,0,0,0,.67,3.93,16.63,16.63,0,0,1,.46,3.93c0,.4,0,.78,0,1.12s0,.71,0,1.09,0,.47,0,.72,0,.48,0,.71a9.91,9.91,0,0,1-.33,2.52A24.94,24.94,0,0,0,578,77a6.21,6.21,0,0,0-.89,1,9.63,9.63,0,0,1-.76,1,4.61,4.61,0,0,1-.91.85,3.1,3.1,0,0,1-1.3.5,1.1,1.1,0,0,1-.5.65,1.93,1.93,0,0,0-.63.61h-.09a5.28,5.28,0,0,1-1.87-.3,11.46,11.46,0,0,1-1.45-.7l-1.37-.82a6.15,6.15,0,0,0-1.6-.7A16.41,16.41,0,0,1,564.36,77a14,14,0,0,0-2.26-2.15,4.17,4.17,0,0,0-.8-1.43,11.16,11.16,0,0,1-1-1.31,3,3,0,0,1-.32-.56l-.28-.61a.84.84,0,0,0-.42-.48,2.07,2.07,0,0,1-.5-.3,9.69,9.69,0,0,0-1-2.48,15.47,15.47,0,0,0-1.52-2.17,5.06,5.06,0,0,0-.41,1c-.1.37-.19.73-.28,1.09a11.12,11.12,0,0,1-.33,1.08,4.08,4.08,0,0,1-.49,1v.13c0,.15.05.23.17.26a.24.24,0,0,1,.17.26.15.15,0,0,1,0,.09.29.29,0,0,0,0,.09,1.08,1.08,0,0,0-.33.43.49.49,0,0,1-.45.3,2.18,2.18,0,0,1,0,.44V72a11.38,11.38,0,0,1-.28,2.52,11.54,11.54,0,0,0-.28,2.56v.57a3.28,3.28,0,0,0,0,.56,2.11,2.11,0,0,0,.26.52.83.83,0,0,1,.17.48.75.75,0,0,1-.26.56l.7.48a4,4,0,0,1,.71.59,3.27,3.27,0,0,1,.55.69,1.59,1.59,0,0,1,.21.8,1.17,1.17,0,0,1-.47,1,4,4,0,0,1-1.15.47c-.45.12-.92.23-1.39.33a2.76,2.76,0,0,0-1.2.54h-.13a1,1,0,0,1-.78-.3,1,1,0,0,0-.78-.31,8.58,8.58,0,0,1-1.13-3,18.14,18.14,0,0,1-.3-3.19,21.47,21.47,0,0,1,.32-3.74q.33-1.86.78-3.69c.31-1.22.64-2.42,1-3.63s.7-2.41,1-3.62l0-.13a.39.39,0,0,0-.11-.31.28.28,0,0,1-.11-.26s0-.08,0-.08c.09-.29.18-.57.28-.83a3.69,3.69,0,0,0,.24-.87,18.44,18.44,0,0,0,.37-2.49c.07-.86.12-1.7.13-2.54s0-1.69.09-2.54a21.45,21.45,0,0,1,.28-2.54,9.05,9.05,0,0,0,.65-.74,3.54,3.54,0,0,1,.78-.7,9.5,9.5,0,0,1,1.74.26,6,6,0,0,1,1.65.7,22.31,22.31,0,0,1,.72,3.73,25.76,25.76,0,0,0,.67,3.74v.13c0,.14.08.21.24.19a.41.41,0,0,1,.37.15.64.64,0,0,0-.11.31c0,.11,0,.23,0,.35v.73c.06.24.13.48.22.74a.68.68,0,0,0,.56.48,13.49,13.49,0,0,0,.65,2.56,19.12,19.12,0,0,0,1,2.26c.38.72.78,1.44,1.22,2.15s.88,1.45,1.34,2.24a9.25,9.25,0,0,1,1.87,1.88c.52.71,1,1.39,1.58,2a9.88,9.88,0,0,0,1.83,1.71,5.42,5.42,0,0,0,2.67.91.9.9,0,0,0,.3-.48l.22-.6a4,4,0,0,1,.28-.55,1,1,0,0,1,.46-.36c.06-.81.12-1.64.19-2.48a9,9,0,0,1,.55-2.39,1.88,1.88,0,0,1-.22-1,5.49,5.49,0,0,1,.06-.83,4.11,4.11,0,0,0,.07-.78,2.42,2.42,0,0,0-.35-1.35,4.7,4.7,0,0,1,.05-.63,1.31,1.31,0,0,1,.26-.63,9.62,9.62,0,0,1-.55-1.82,9.77,9.77,0,0,1-.19-1.95,5.46,5.46,0,0,1,.13-1.18,5.4,5.4,0,0,1-.35-1.52l-.17-1.78a15.82,15.82,0,0,0-.26-1.69,2.54,2.54,0,0,0-.66-1.26,1.55,1.55,0,0,0,.27-.91,5,5,0,0,0-.27-1.65,5.28,5.28,0,0,1-.26-1.65,3.15,3.15,0,0,1,.26-1.22,16.8,16.8,0,0,1,1.89.2,11.73,11.73,0,0,0,1.85.15,2.36,2.36,0,0,0,.61.57c.23.14.48.28.74.41s.51.27.76.41A1.62,1.62,0,0,1,579.08,50.2Z"/></g></g></svg>